<svg xmlns="http://www.w3.org/2000/svg" width="1024" height="1024" viewBox="0 0 1024 1024">
  <defs>
    <radialGradient id="sky" cx="50%" cy="20%" r="90%">
      <stop stop-color="#56308f"/>
      <stop offset=".5" stop-color="#24124f"/>
      <stop offset="1" stop-color="#090b26"/>
    </radialGradient>
    <linearGradient id="ground" x1="0" y1="0" x2="0" y2="1">
      <stop stop-color="#37236f"/>
      <stop offset="1" stop-color="#171337"/>
    </linearGradient>
  </defs>
  <rect width="1024" height="1024" fill="url(#sky)"/>
  <g fill="#fff">
    <circle cx="115" cy="128" r="5"/><circle cx="210" cy="245" r="3"/><circle cx="325" cy="95" r="6"/>
    <circle cx="465" cy="188" r="4"/><circle cx="605" cy="88" r="3"/><circle cx="770" cy="196" r="6"/>
    <circle cx="902" cy="105" r="4"/><circle cx="852" cy="350" r="3"/><circle cx="154" cy="402" r="4"/>
  </g>
  <g fill="#8ff9ff" opacity=".8">
    <circle cx="270" cy="340" r="7"/><circle cx="686" cy="295" r="5"/><circle cx="935" cy="470" r="6"/>
  </g>
  <path d="M0 730q150-90 300 0t300 0q160-105 424 15v279H0z" fill="url(#ground)"/>
  <path d="M0 810q180-75 330 10t320 0q170-75 374 20v184H0z" fill="#10112f"/>
  <ellipse cx="512" cy="790" rx="250" ry="42" fill="#a477ff" opacity=".18"/>
</svg>